<svg width="22" height="24" viewBox="0 0 22 24" fill="none" xmlns="http://www.w3.org/2000/svg">
<path d="M11 23.6504C9.5026 23.6504 8.10254 23.3696 6.7998 22.8081C5.49707 22.2466 4.34782 21.4717 3.35205 20.4834C2.36377 19.4876 1.58887 18.3384 1.02734 17.0356C0.46582 15.7329 0.185059 14.3328 0.185059 12.8354C0.185059 11.3455 0.46582 9.94922 1.02734 8.64648C1.58887 7.33626 2.36377 6.18701 3.35205 5.19873C4.34782 4.20296 5.49707 3.42432 6.7998 2.86279C8.10254 2.30127 9.5026 2.02051 11 2.02051C12.4899 2.02051 13.89 2.30127 15.2002 2.86279C16.5104 3.42432 17.6597 4.20296 18.6479 5.19873C19.6362 6.18701 20.4111 7.33626 20.9727 8.64648C21.5342 9.94922 21.8149 11.3455 21.8149 12.8354C21.8149 14.3328 21.5342 15.7329 20.9727 17.0356C20.4111 18.3384 19.6362 19.4876 18.6479 20.4834C17.6597 21.4717 16.5104 22.2466 15.2002 22.8081C13.89 23.3696 12.4899 23.6504 11 23.6504ZM6.10352 14.2168H10.9888C11.2358 14.2168 11.4417 14.1344 11.6064 13.9697C11.7786 13.7975 11.8647 13.5916 11.8647 13.3521V6.80469C11.8647 6.55762 11.7786 6.35173 11.6064 6.18701C11.4417 6.01481 11.2358 5.92871 10.9888 5.92871C10.7417 5.92871 10.5358 6.01481 10.3711 6.18701C10.2064 6.35173 10.124 6.55762 10.124 6.80469V12.4761H6.10352C5.86393 12.4761 5.65804 12.5622 5.48584 12.7344C5.32113 12.8991 5.23877 13.105 5.23877 13.3521C5.23877 13.5916 5.32113 13.7975 5.48584 13.9697C5.65804 14.1344 5.86393 14.2168 6.10352 14.2168ZM1.62256 4.91797C1.48031 4.91797 1.34928 4.87679 1.22949 4.79443C1.11719 4.71208 1.03109 4.59603 0.971191 4.44629C0.911296 4.31152 0.86263 4.14307 0.825195 3.94092C0.78776 3.73877 0.769043 3.52539 0.769043 3.30078C0.769043 2.70182 0.915039 2.15902 1.20703 1.67236C1.49902 1.18571 1.89209 0.80013 2.38623 0.515625C2.88786 0.223633 3.43815 0.0776367 4.03711 0.0776367C4.40397 0.0776367 4.76335 0.130046 5.11523 0.234863C5.47461 0.339681 5.77409 0.493164 6.01367 0.695312C6.22331 0.882487 6.32812 1.09587 6.32812 1.33545C6.32812 1.5376 6.23454 1.7098 6.04736 1.85205L2.08301 4.76074C2.00065 4.82064 1.92578 4.86182 1.8584 4.88428C1.79102 4.90674 1.7124 4.91797 1.62256 4.91797ZM20.3774 4.91797C20.2876 4.91797 20.209 4.90674 20.1416 4.88428C20.0742 4.86182 19.9993 4.82064 19.917 4.76074L15.9639 1.85205C15.7617 1.7098 15.6606 1.5376 15.6606 1.33545C15.6606 1.09587 15.7692 0.882487 15.9863 0.695312C16.2259 0.493164 16.5216 0.339681 16.8735 0.234863C17.2329 0.130046 17.5923 0.0776367 17.9517 0.0776367C18.5581 0.0776367 19.1084 0.223633 19.6025 0.515625C20.1042 0.80013 20.501 1.18571 20.793 1.67236C21.085 2.15902 21.231 2.70182 21.231 3.30078C21.231 3.52539 21.2122 3.74251 21.1748 3.95215C21.1449 4.1543 21.0999 4.31901 21.04 4.44629C20.9727 4.58854 20.8791 4.70459 20.7593 4.79443C20.647 4.87679 20.5197 4.91797 20.3774 4.91797ZM1.51025 23.4595C1.32308 23.2798 1.22949 23.0552 1.22949 22.7856C1.22949 22.5236 1.32682 22.299 1.52148 22.1118L3.76758 19.877L5.12646 21.2358L2.90283 23.437C2.70817 23.6392 2.47233 23.7402 2.19531 23.7402C1.92578 23.7477 1.69743 23.6541 1.51025 23.4595ZM20.4785 23.4595C20.2913 23.6541 20.063 23.7477 19.7935 23.7402C19.5239 23.7402 19.2918 23.6392 19.0972 23.437L16.8735 21.2358L18.2324 19.877L20.4785 22.1118C20.6732 22.299 20.7668 22.5236 20.7593 22.7856C20.7593 23.0552 20.6657 23.2798 20.4785 23.4595Z" fill="#99ABA9"/>
</svg>
