<svg width="22" height="26" viewBox="0 0 22 26" fill="none" xmlns="http://www.w3.org/2000/svg">
<path d="M12.5947 25.8521C12.43 25.8521 12.284 25.7959 12.1567 25.6836C12.0369 25.5713 11.9658 25.4253 11.9434 25.2456C11.7637 24.0327 11.5728 23.0107 11.3706 22.1797C11.1685 21.3561 10.9064 20.6785 10.5845 20.147C10.2625 19.6154 9.83577 19.1924 9.3042 18.8779C8.78011 18.556 8.11003 18.2977 7.29395 18.103C6.48535 17.9084 5.4821 17.7324 4.28418 17.5752C4.08952 17.5527 3.93604 17.4816 3.82373 17.3618C3.71143 17.2345 3.65527 17.0811 3.65527 16.9014C3.65527 16.7292 3.71143 16.5832 3.82373 16.4634C3.94352 16.3361 4.09701 16.2612 4.28418 16.2388C5.4821 16.104 6.4891 15.9468 7.30518 15.7671C8.12126 15.5799 8.79508 15.3254 9.32666 15.0034C9.85824 14.674 10.285 14.2397 10.6069 13.7007C10.9364 13.1616 11.1984 12.4766 11.3931 11.6455C11.5952 10.8145 11.7786 9.78874 11.9434 8.56836C11.9658 8.38867 12.0369 8.24268 12.1567 8.13037C12.284 8.01807 12.43 7.96191 12.5947 7.96191C12.7744 7.96191 12.9204 8.01807 13.0327 8.13037C13.1525 8.24268 13.2311 8.38867 13.2686 8.56836C13.4333 9.78874 13.613 10.8145 13.8076 11.6455C14.0098 12.4766 14.2718 13.1616 14.5938 13.7007C14.9232 14.2323 15.3499 14.6628 15.874 14.9922C16.4056 15.3141 17.0794 15.5687 17.8955 15.7559C18.7116 15.943 19.7186 16.104 20.9165 16.2388C21.1037 16.2612 21.2534 16.3361 21.3657 16.4634C21.4855 16.5907 21.5454 16.7367 21.5454 16.9014C21.5454 17.0811 21.4855 17.2345 21.3657 17.3618C21.2534 17.4891 21.1037 17.5602 20.9165 17.5752C19.7186 17.71 18.7078 17.8709 17.8843 18.0581C17.0682 18.2378 16.3944 18.4886 15.8628 18.8105C15.3312 19.1325 14.9045 19.563 14.5825 20.1021C14.2606 20.6411 13.9985 21.3299 13.7964 22.1685C13.6017 23.007 13.4258 24.0327 13.2686 25.2456C13.2386 25.4253 13.1637 25.5713 13.0439 25.6836C12.9242 25.7959 12.7744 25.8521 12.5947 25.8521ZM4.83447 13.4087C4.57992 13.4087 4.43392 13.2702 4.39648 12.9932C4.30664 12.252 4.21305 11.6717 4.11572 11.2524C4.01839 10.8257 3.86117 10.5075 3.64404 10.2979C3.42692 10.0807 3.09749 9.91602 2.65576 9.80371C2.22152 9.69141 1.6263 9.57161 0.870117 9.44434C0.585612 9.4069 0.443359 9.26465 0.443359 9.01758C0.443359 8.78548 0.566895 8.64697 0.813965 8.60205C1.58512 8.4598 2.19157 8.33252 2.6333 8.22021C3.07503 8.10042 3.40446 7.93571 3.62158 7.72607C3.84619 7.51644 4.00716 7.20573 4.10449 6.79395C4.20931 6.38216 4.30664 5.80566 4.39648 5.06445C4.43392 4.78743 4.57992 4.64893 4.83447 4.64893C5.08154 4.64893 5.2238 4.77995 5.26123 5.04199C5.35107 5.79818 5.44466 6.39339 5.54199 6.82764C5.64681 7.26188 5.80778 7.58757 6.0249 7.80469C6.24202 8.02181 6.57145 8.18278 7.01318 8.2876C7.45492 8.38493 8.06136 8.48975 8.83252 8.60205C8.94482 8.60954 9.03467 8.65446 9.10205 8.73682C9.17692 8.81169 9.21436 8.90527 9.21436 9.01758C9.21436 9.25716 9.09082 9.39941 8.84375 9.44434C8.0651 9.59408 7.45492 9.72884 7.01318 9.84863C6.57894 9.96094 6.25326 10.1257 6.03613 10.3428C5.81901 10.5524 5.65804 10.8669 5.55322 11.2861C5.4484 11.6979 5.35107 12.2744 5.26123 13.0156C5.23877 13.1279 5.1901 13.2215 5.11523 13.2964C5.04036 13.3713 4.94678 13.4087 4.83447 13.4087ZM10.27 5.55859C10.1128 5.55859 10.0229 5.47624 10.0005 5.31152C9.91813 4.85482 9.84326 4.49544 9.77588 4.2334C9.71598 3.97135 9.61865 3.77295 9.48389 3.63818C9.35661 3.50342 9.1582 3.3986 8.88867 3.32373C8.62663 3.24137 8.25228 3.15902 7.76562 3.07666C7.60091 3.03923 7.51855 2.94189 7.51855 2.78467C7.51855 2.64242 7.60091 2.55257 7.76562 2.51514C8.25228 2.42529 8.62663 2.34294 8.88867 2.26807C9.1582 2.18571 9.35661 2.07715 9.48389 1.94238C9.61865 1.80762 9.71598 1.61296 9.77588 1.3584C9.84326 1.09635 9.91813 0.736979 10.0005 0.280273C10.0229 0.11556 10.1128 0.0332031 10.27 0.0332031C10.4272 0.0332031 10.5208 0.11556 10.5508 0.280273C10.6257 0.736979 10.6968 1.09635 10.7642 1.3584C10.8315 1.62044 10.9289 1.81885 11.0562 1.95361C11.1909 2.08838 11.3893 2.19694 11.6514 2.2793C11.9209 2.35417 12.299 2.43278 12.7856 2.51514C12.9504 2.54508 13.0327 2.63493 13.0327 2.78467C13.0327 2.94189 12.9504 3.03923 12.7856 3.07666C12.299 3.15902 11.9209 3.24137 11.6514 3.32373C11.3893 3.3986 11.1909 3.50716 11.0562 3.64941C10.9289 3.78418 10.8315 3.98258 10.7642 4.24463C10.6968 4.49919 10.6257 4.85482 10.5508 5.31152C10.5208 5.47624 10.4272 5.55859 10.27 5.55859Z" fill="#99ABA9"/>
</svg>
